<svg width="19" height="19" viewBox="0 0 19 19" fill="none" xmlns="http://www.w3.org/2000/svg">
<path id="map" d="M1.19531 17.9595C1.48535 17.9595 1.74902 17.8628 2.10059 17.6606L6.37207 15.3579L11.0303 17.9683C11.3994 18.1704 11.7861 18.2671 12.1641 18.2671C12.5332 18.2671 12.8936 18.1792 13.2188 17.9858L17.5869 15.5249C18.1934 15.1821 18.457 14.6987 18.457 14.0308V2.22705C18.457 1.47998 18.0088 1.03174 17.2705 1.03174C16.9805 1.03174 16.7168 1.146 16.3564 1.33936L11.9268 3.80029L7.32129 1.02295C6.9873 0.82959 6.62695 0.73291 6.25781 0.73291C5.89746 0.73291 5.53711 0.820801 5.2207 1.00537L0.878906 3.4751C0.272461 3.81787 0 4.28369 0 4.95166V16.7729C0 17.52 0.448242 17.9595 1.19531 17.9595ZM5.58105 13.7847L1.96875 15.771C1.90723 15.7974 1.85449 15.8237 1.81055 15.8237C1.70508 15.8237 1.65234 15.7446 1.65234 15.6216V5.40869C1.65234 5.1626 1.74023 5.00439 1.96875 4.87256L5.29102 2.94775C5.3877 2.88623 5.47559 2.84229 5.58105 2.78955V13.7847ZM7.25098 13.8286V3.00049C7.33887 3.04443 7.43555 3.09717 7.52344 3.1499L11.2061 5.37354V16.0435C11.0918 15.9819 10.9775 15.9204 10.8545 15.8501L7.25098 13.8286ZM12.8848 16.1665V5.20654L16.4971 3.23779C16.541 3.21143 16.5938 3.19385 16.6377 3.19385C16.7432 3.19385 16.8135 3.27295 16.8135 3.38721V13.5474C16.8135 13.8022 16.7256 13.9604 16.4883 14.0923L13.2891 15.9468C13.1572 16.0259 13.0166 16.105 12.8848 16.1665Z" fill="#474747"/>
</svg>
